<svg height="1774" width="720" xmlns="http://www.w3.org/2000/svg">
<rect height="1774" fill="#555" width="720"></rect>
<text fill="#7f7" font-family="Courier New" font-size="12" xml:space="preserve">
<tspan x="10" y="26">12 megabytes installed</tspan>
<tspan x="10" y="42"></tspan>
<tspan x="10" y="58">node_modules</tspan>
<tspan x="10" y="74">└─┬ indico.io@0.10.5 </tspan>
<tspan x="10" y="90">  ├── bluebird@2.11.0 </tspan>
<tspan x="10" y="106">  ├─┬ config-ini@0.2.2 </tspan>
<tspan x="10" y="122">  │ └── iniparser@1.0.5 </tspan>
<tspan x="10" y="138">  ├─┬ expand-tilde@1.2.2 </tspan>
<tspan x="10" y="154">  │ └── os-homedir@1.0.2 </tspan>
<tspan x="10" y="170">  ├─┬ file-type@2.12.0 </tspan>
<tspan x="10" y="186">  │ ├─┬ meow@3.7.0 </tspan>
<tspan x="10" y="202">  │ │ ├─┬ camelcase-keys@2.1.0 </tspan>
<tspan x="10" y="218">  │ │ │ └── camelcase@2.1.1 </tspan>
<tspan x="10" y="234">  │ │ ├── decamelize@1.2.0 </tspan>
<tspan x="10" y="250">  │ │ ├─┬ loud-rejection@1.6.0 </tspan>
<tspan x="10" y="266">  │ │ │ ├─┬ currently-unhandled@0.4.1 </tspan>
<tspan x="10" y="282">  │ │ │ │ └── array-find-index@1.0.2 </tspan>
<tspan x="10" y="298">  │ │ │ └── signal-exit@3.0.2 </tspan>
<tspan x="10" y="314">  │ │ ├── map-obj@1.0.1 </tspan>
<tspan x="10" y="330">  │ │ ├── minimist@1.2.0 </tspan>
<tspan x="10" y="346">  │ │ ├─┬ normalize-package-data@2.3.8 </tspan>
<tspan x="10" y="362">  │ │ │ ├── hosted-git-info@2.4.2 </tspan>
<tspan x="10" y="378">  │ │ │ ├─┬ is-builtin-module@1.0.0 </tspan>
<tspan x="10" y="394">  │ │ │ │ └── builtin-modules@1.1.1 </tspan>
<tspan x="10" y="410">  │ │ │ ├── semver@5.3.0 </tspan>
<tspan x="10" y="426">  │ │ │ └─┬ validate-npm-package-license@3.0.1 </tspan>
<tspan x="10" y="442">  │ │ │   ├─┬ spdx-correct@1.0.2 </tspan>
<tspan x="10" y="458">  │ │ │   │ └── spdx-license-ids@1.2.2 </tspan>
<tspan x="10" y="474">  │ │ │   └── spdx-expression-parse@1.0.4 </tspan>
<tspan x="10" y="490">  │ │ ├── object-assign@4.1.1 </tspan>
<tspan x="10" y="506">  │ │ ├─┬ read-pkg-up@1.0.1 </tspan>
<tspan x="10" y="522">  │ │ │ ├─┬ find-up@1.1.2 </tspan>
<tspan x="10" y="538">  │ │ │ │ ├── path-exists@2.1.0 </tspan>
<tspan x="10" y="554">  │ │ │ │ └─┬ pinkie-promise@2.0.1 </tspan>
<tspan x="10" y="570">  │ │ │ │   └── pinkie@2.0.4 </tspan>
<tspan x="10" y="586">  │ │ │ └─┬ read-pkg@1.1.0 </tspan>
<tspan x="10" y="602">  │ │ │   ├─┬ load-json-file@1.1.0 </tspan>
<tspan x="10" y="618">  │ │ │   │ ├── graceful-fs@4.1.11 </tspan>
<tspan x="10" y="634">  │ │ │   │ ├─┬ parse-json@2.2.0 </tspan>
<tspan x="10" y="650">  │ │ │   │ │ └─┬ error-ex@1.3.1 </tspan>
<tspan x="10" y="666">  │ │ │   │ │   └── is-arrayish@0.2.1 </tspan>
<tspan x="10" y="682">  │ │ │   │ ├── pify@2.3.0 </tspan>
<tspan x="10" y="698">  │ │ │   │ └─┬ strip-bom@2.0.0 </tspan>
<tspan x="10" y="714">  │ │ │   │   └── is-utf8@0.2.1 </tspan>
<tspan x="10" y="730">  │ │ │   └── path-type@1.1.0 </tspan>
<tspan x="10" y="746">  │ │ ├─┬ redent@1.0.0 </tspan>
<tspan x="10" y="762">  │ │ │ ├─┬ indent-string@2.1.0 </tspan>
<tspan x="10" y="778">  │ │ │ │ └─┬ repeating@2.0.1 </tspan>
<tspan x="10" y="794">  │ │ │ │   └─┬ is-finite@1.0.2 </tspan>
<tspan x="10" y="810">  │ │ │ │     └── number-is-nan@1.0.1 </tspan>
<tspan x="10" y="826">  │ │ │ └─┬ strip-indent@1.0.1 </tspan>
<tspan x="10" y="842">  │ │ │   └── get-stdin@4.0.1 </tspan>
<tspan x="10" y="858">  │ │ └── trim-newlines@1.0.0 </tspan>
<tspan x="10" y="874">  │ └── read-chunk@1.0.1 </tspan>
<tspan x="10" y="890">  ├─┬ request@2.81.0 </tspan>
<tspan x="10" y="906">  │ ├── aws-sign2@0.6.0 </tspan>
<tspan x="10" y="922">  │ ├── aws4@1.6.0 </tspan>
<tspan x="10" y="938">  │ ├── caseless@0.12.0 </tspan>
<tspan x="10" y="954">  │ ├─┬ combined-stream@1.0.5 </tspan>
<tspan x="10" y="970">  │ │ └── delayed-stream@1.0.0 </tspan>
<tspan x="10" y="986">  │ ├── extend@3.0.0 </tspan>
<tspan x="10" y="1002">  │ ├── forever-agent@0.6.1 </tspan>
<tspan x="10" y="1018">  │ ├─┬ form-data@2.1.4 </tspan>
<tspan x="10" y="1034">  │ │ └── asynckit@0.4.0 </tspan>
<tspan x="10" y="1050">  │ ├─┬ har-validator@4.2.1 </tspan>
<tspan x="10" y="1066">  │ │ ├─┬ ajv@4.11.7 </tspan>
<tspan x="10" y="1082">  │ │ │ ├── co@4.6.0 </tspan>
<tspan x="10" y="1098">  │ │ │ └─┬ json-stable-stringify@1.0.1 </tspan>
<tspan x="10" y="1114">  │ │ │   └── jsonify@0.0.0 </tspan>
<tspan x="10" y="1130">  │ │ └── har-schema@1.0.5 </tspan>
<tspan x="10" y="1146">  │ ├─┬ hawk@3.1.3 </tspan>
<tspan x="10" y="1162">  │ │ ├── boom@2.10.1 </tspan>
<tspan x="10" y="1178">  │ │ ├── cryptiles@2.0.5 </tspan>
<tspan x="10" y="1194">  │ │ ├── hoek@2.16.3 </tspan>
<tspan x="10" y="1210">  │ │ └── sntp@1.0.9 </tspan>
<tspan x="10" y="1226">  │ ├─┬ http-signature@1.1.1 </tspan>
<tspan x="10" y="1242">  │ │ ├── assert-plus@0.2.0 </tspan>
<tspan x="10" y="1258">  │ │ ├─┬ jsprim@1.4.0 </tspan>
<tspan x="10" y="1274">  │ │ │ ├── assert-plus@1.0.0 </tspan>
<tspan x="10" y="1290">  │ │ │ ├── extsprintf@1.0.2 </tspan>
<tspan x="10" y="1306">  │ │ │ ├── json-schema@0.2.3 </tspan>
<tspan x="10" y="1322">  │ │ │ └── verror@1.3.6 </tspan>
<tspan x="10" y="1338">  │ │ └─┬ sshpk@1.13.0 </tspan>
<tspan x="10" y="1354">  │ │   ├── asn1@0.2.3 </tspan>
<tspan x="10" y="1370">  │ │   ├── assert-plus@1.0.0 </tspan>
<tspan x="10" y="1386">  │ │   ├── bcrypt-pbkdf@1.0.1 </tspan>
<tspan x="10" y="1402">  │ │   ├─┬ dashdash@1.14.1 </tspan>
<tspan x="10" y="1418">  │ │   │ └── assert-plus@1.0.0 </tspan>
<tspan x="10" y="1434">  │ │   ├── ecc-jsbn@0.1.1 </tspan>
<tspan x="10" y="1450">  │ │   ├─┬ getpass@0.1.6 </tspan>
<tspan x="10" y="1466">  │ │   │ └── assert-plus@1.0.0 </tspan>
<tspan x="10" y="1482">  │ │   ├── jodid25519@1.0.2 </tspan>
<tspan x="10" y="1498">  │ │   ├── jsbn@0.1.1 </tspan>
<tspan x="10" y="1514">  │ │   └── tweetnacl@0.14.5 </tspan>
<tspan x="10" y="1530">  │ ├── is-typedarray@1.0.0 </tspan>
<tspan x="10" y="1546">  │ ├── isstream@0.1.2 </tspan>
<tspan x="10" y="1562">  │ ├── json-stringify-safe@5.0.1 </tspan>
<tspan x="10" y="1578">  │ ├─┬ mime-types@2.1.15 </tspan>
<tspan x="10" y="1594">  │ │ └── mime-db@1.27.0 </tspan>
<tspan x="10" y="1610">  │ ├── oauth-sign@0.8.2 </tspan>
<tspan x="10" y="1626">  │ ├── performance-now@0.2.0 </tspan>
<tspan x="10" y="1642">  │ ├── qs@6.4.0 </tspan>
<tspan x="10" y="1658">  │ ├── safe-buffer@5.0.1 </tspan>
<tspan x="10" y="1674">  │ ├── stringstream@0.0.5 </tspan>
<tspan x="10" y="1690">  │ ├─┬ tough-cookie@2.3.2 </tspan>
<tspan x="10" y="1706">  │ │ └── punycode@1.4.1 </tspan>
<tspan x="10" y="1722">  │ ├── tunnel-agent@0.6.0 </tspan>
<tspan x="10" y="1738">  │ └── uuid@3.0.1 </tspan>
<tspan x="10" y="1754">  └── valid-url@1.0.9</tspan>
</text>
</svg>
